<svg height="492pt" viewBox="-24 0 492 492.00011" width="492pt" xmlns="http://www.w3.org/2000/svg"><path d="m348.261719 368.589844h87.75v115.410156h-87.75zm0 0" fill="#00acea"/><path d="m327.660156 188h36.328125v115.410156h-87.75v-115.410156zm0 0" fill="#00efd1"/><path d="m208.261719 368.589844h87.75v115.410156h-87.75zm0 0" fill="#00efd1"/><path d="m229.871094 188v115.410156h-87.75v-115.410156zm0 0" fill="#00acea"/><path d="m186 123.410156h-43.878906v-115.410156h87.75v115.410156zm0 0" fill="#00efd1"/><path d="m44.320312 188h51.417969v115.410156h-87.75v-115.410156zm0 0" fill="#00acea"/><g fill="#083863"><path d="m206.769531 23h-41.558593c-4.417969 0-8 3.582031-8 8s3.582031 8 8 8h41.558593c4.417969 0 8-3.582031 8-8s-3.582031-8-8-8zm0 0"/><path d="m206.769531 46h-41.558593c-4.417969 0-8 3.582031-8 8s3.582031 8 8 8h41.558593c4.417969 0 8-3.582031 8-8s-3.582031-8-8-8zm0 0"/><path d="m206.769531 69h-41.558593c-4.417969 0-8 3.582031-8 8s3.582031 8 8 8h41.558593c4.417969 0 8-3.582031 8-8s-3.582031-8-8-8zm0 0"/><path d="m206.769531 92h-41.558593c-4.417969 0-8 3.582031-8 8s3.582031 8 8 8h41.558593c4.417969 0 8-3.582031 8-8s-3.582031-8-8-8zm0 0"/><path d="m165.210938 219h41.558593c4.417969 0 8-3.582031 8-8s-3.582031-8-8-8h-41.558593c-4.417969 0-8 3.582031-8 8s3.582031 8 8 8zm0 0"/><path d="m165.210938 242h41.558593c4.417969 0 8-3.582031 8-8s-3.582031-8-8-8h-41.558593c-4.417969 0-8 3.582031-8 8s3.582031 8 8 8zm0 0"/><path d="m165.210938 265h41.558593c4.417969 0 8-3.582031 8-8s-3.582031-8-8-8h-41.558593c-4.417969 0-8 3.582031-8 8s3.582031 8 8 8zm0 0"/><path d="m165.210938 288h41.558593c4.417969 0 8-3.582031 8-8s-3.582031-8-8-8h-41.558593c-4.417969 0-8 3.582031-8 8s3.582031 8 8 8zm0 0"/><path d="m371.351562 400h41.570313c4.417969 0 8-3.582031 8-8s-3.582031-8-8-8h-41.570313c-4.417968 0-8 3.582031-8 8s3.582032 8 8 8zm0 0"/><path d="m371.351562 423h41.570313c4.417969 0 8-3.582031 8-8s-3.582031-8-8-8h-41.570313c-4.417968 0-8 3.582031-8 8s3.582032 8 8 8zm0 0"/><path d="m371.351562 446h41.570313c4.417969 0 8-3.582031 8-8s-3.582031-8-8-8h-41.570313c-4.417968 0-8 3.582031-8 8s3.582032 8 8 8zm0 0"/><path d="m371.351562 469h41.570313c4.417969 0 8-3.582031 8-8s-3.582031-8-8-8h-41.570313c-4.417968 0-8 3.582031-8 8s3.582032 8 8 8zm0 0"/><path d="m231.351562 400h41.570313c4.417969 0 8-3.582031 8-8s-3.582031-8-8-8h-41.570313c-4.417968 0-8 3.582031-8 8s3.582032 8 8 8zm0 0"/><path d="m231.351562 423h41.570313c4.417969 0 8-3.582031 8-8s-3.582031-8-8-8h-41.570313c-4.417968 0-8 3.582031-8 8s3.582032 8 8 8zm0 0"/><path d="m231.351562 446h41.570313c4.417969 0 8-3.582031 8-8s-3.582031-8-8-8h-41.570313c-4.417968 0-8 3.582031-8 8s3.582032 8 8 8zm0 0"/><path d="m231.351562 469h41.570313c4.417969 0 8-3.582031 8-8s-3.582031-8-8-8h-41.570313c-4.417968 0-8 3.582031-8 8s3.582032 8 8 8zm0 0"/><path d="m7.988281 311h87.75c4.421875 0 8.261719-3.171875 8.261719-7.589844v-115.410156c-.121094-4.46875-3.789062-8.019531-8.261719-8h-43.738281v-16h126v16h-35.878906c-4.445313-.011719-8.066406 3.558594-8.121094 8v115.410156c0 4.417969 3.699219 7.589844 8.121094 7.589844h87.75c4.417968 0 8.128906-3.171875 8.128906-7.589844v-115.410156c-.0625-4.441406-3.6875-8.011719-8.128906-8h-35.871094v-16h126v16h-43.761719c-4.464843-.019531-8.125 3.535156-8.238281 8v115.410156c0 4.417969 3.820312 7.589844 8.238281 7.589844h37.761719v11h-61.871094c-4.503906.144531-8.09375 3.820312-8.128906 8.328125v30.671875h-35.738281c-4.421875 0-8.261719 3.171875-8.261719 7.589844v115.410156c.121094 4.46875 3.789062 8.019531 8.261719 8h87.75c4.414062 0 7.992187-3.582031 7.988281-8v-115.410156c0-4.417969-3.570312-7.589844-7.988281-7.589844h-36.011719v-23h124v23h-35.738281c-4.421875 0-8.261719 3.171875-8.261719 7.589844v115.410156c.121094 4.46875 3.789062 8.019531 8.261719 8h87.75c4.414062 0 7.992187-3.582031 7.988281-8v-115.410156c0-4.417969-3.570312-7.589844-7.988281-7.589844h-36.011719v-30.671875c-.066406-4.519531-3.679688-8.1875-8.199219-8.328125h-61.800781v-11h33.988281c4.421875 0 8.011719-3.171875 8.011719-7.589844v-115.410156c-.003906-4.421875-3.589844-8-8.011719-8h-27.988281v-24c-.160156-4.480469-3.855469-8.023438-8.339844-8h-133.660156v-17h35.871094c4.417968 0 8.128906-3.171875 8.128906-7.589844v-115.410156c-.0625-4.441406-3.6875-8.0117188-8.128906-8h-87.75c-4.445313-.0117188-8.066406 3.558594-8.121094 8v115.410156c0 4.417969 3.699219 7.589844 8.121094 7.589844h35.878906v17h-133.679688c-4.480468-.023438-8.167968 3.519531-8.320312 8v24h-28.011719c-4.414062 0-7.99218725 3.582031-7.988281 8v115.410156c0 4.417969 3.570312 7.589844 7.988281 7.589844zm280.011719 66v99h-72v-99zm140 0v99h-72v-99zm-72-181v99h-72v-99zm-206-81v-99h72v99zm72 81v99h-72v-99zm-206 0h72v99h-72zm0 0"/><path d="m72.648438 203h-41.570313c-4.417969 0-8 3.582031-8 8s3.582031 8 8 8h41.570313c4.417968 0 8-3.582031 8-8s-3.582032-8-8-8zm0 0"/><path d="m72.648438 226h-41.570313c-4.417969 0-8 3.582031-8 8s3.582031 8 8 8h41.570313c4.417968 0 8-3.582031 8-8s-3.582032-8-8-8zm0 0"/><path d="m72.648438 249h-41.570313c-4.417969 0-8 3.582031-8 8s3.582031 8 8 8h41.570313c4.417968 0 8-3.582031 8-8s-3.582032-8-8-8zm0 0"/><path d="m72.648438 272h-41.570313c-4.417969 0-8 3.582031-8 8s3.582031 8 8 8h41.570313c4.417968 0 8-3.582031 8-8s-3.582032-8-8-8zm0 0"/><path d="m299.328125 219h41.570313c4.417968 0 8-3.582031 8-8s-3.582032-8-8-8h-41.570313c-4.417969 0-8 3.582031-8 8s3.582031 8 8 8zm0 0"/><path d="m299.328125 242h41.570313c4.417968 0 8-3.582031 8-8s-3.582032-8-8-8h-41.570313c-4.417969 0-8 3.582031-8 8s3.582031 8 8 8zm0 0"/><path d="m299.328125 265h41.570313c4.417968 0 8-3.582031 8-8s-3.582032-8-8-8h-41.570313c-4.417969 0-8 3.582031-8 8s3.582031 8 8 8zm0 0"/><path d="m299.328125 288h41.570313c4.417968 0 8-3.582031 8-8s-3.582032-8-8-8h-41.570313c-4.417969 0-8 3.582031-8 8s3.582031 8 8 8zm0 0"/></g></svg>